<svg width="34" height="37" viewBox="0 0 34 37" fill="none" xmlns="http://www.w3.org/2000/svg">
<g filter="url(#filter0_d_23_53)">
<path d="M4 16C4 23.1794 9.82062 29 17 29C24.1794 29 30 23.1794 30 16C30 8.82062 24.1794 3 17 3C9.82062 3 4 8.82062 4 16ZM20.0856 16L14.7931 10.7069C14.6135 10.5178 14.5148 10.2661 14.5182 10.0053C14.5215 9.74454 14.6266 9.4954 14.811 9.311C14.9954 9.1266 15.2445 9.02152 15.5053 9.01819C15.7661 9.01485 16.0178 9.11351 16.2069 9.29313L22.2069 15.2931C22.3943 15.4806 22.4995 15.7349 22.4995 16C22.4995 16.2651 22.3943 16.5194 22.2069 16.7069L16.2069 22.7069C16.0178 22.8865 15.7661 22.9852 15.5053 22.9818C15.2445 22.9785 14.9954 22.8734 14.811 22.689C14.6266 22.5046 14.5215 22.2555 14.5182 21.9947C14.5148 21.7339 14.6135 21.4822 14.7931 21.2931L20.0856 16Z" fill="white"/>
</g>
<defs>
<filter id="filter0_d_23_53" x="-3" y="0" width="40" height="40" filterUnits="userSpaceOnUse" color-interpolation-filters="sRGB">
<feFlood flood-opacity="0" result="BackgroundImageFix"/>
<feColorMatrix in="SourceAlpha" type="matrix" values="0 0 0 0 0 0 0 0 0 0 0 0 0 0 0 0 0 0 127 0" result="hardAlpha"/>
<feOffset dy="4"/>
<feGaussianBlur stdDeviation="2"/>
<feColorMatrix type="matrix" values="0 0 0 0 0 0 0 0 0 0 0 0 0 0 0 0 0 0 0.25 0"/>
<feBlend mode="normal" in2="BackgroundImageFix" result="effect1_dropShadow_23_53"/>
<feBlend mode="normal" in="SourceGraphic" in2="effect1_dropShadow_23_53" result="shape"/>
</filter>
</defs>
</svg>
