<?xml version="1.0" standalone="no"?>
<!DOCTYPE svg PUBLIC "-//W3C//DTD SVG 20010904//EN"
 "http://www.w3.org/TR/2001/REC-SVG-20010904/DTD/svg10.dtd">
<svg version="1.0" xmlns="http://www.w3.org/2000/svg"
 width="768.000000pt" height="768.000000pt" viewBox="0 0 768.000000 768.000000"
 preserveAspectRatio="xMidYMid meet">

<g transform="translate(0.000000,768.000000) scale(0.100000,-0.100000)"
fill="#000000" stroke="none">
<path d="M1681 7609 c-494 -42 -871 -208 -1154 -509 -293 -310 -431 -668 -457
-1190 -10 -206 -12 -3612 -2 -3647 7 -20 12 -18 92 44 113 88 311 218 436 287
108 59 343 166 409 186 l40 12 1 976 c0 1209 11 1424 84 1707 72 279 193 494
385 688 195 195 420 320 706 391 268 67 492 78 1609 78 1128 0 1353 -11 1630
-78 280 -69 507 -194 703 -389 193 -193 315 -411 387 -690 72 -278 83 -505 83
-1640 0 -909 -7 -1182 -38 -1402 -59 -420 -224 -746 -500 -985 -264 -229 -596
-354 -1028 -384 -66 -5 -97 -10 -93 -18 2 -6 23 -52 45 -103 96 -220 185 -509
232 -752 l23 -123 386 5 c386 5 459 11 645 48 430 86 797 332 1028 689 142
220 222 442 264 735 17 123 18 243 18 2305 0 2050 -1 2182 -18 2295 -35 227
-78 375 -162 550 -82 172 -162 283 -304 425 -226 226 -452 353 -761 429 -280
68 -139 64 -2475 67 -1160 1 -2157 -2 -2214 -7z"/>
<path d="M2902 6120 c-369 -13 -534 -38 -719 -110 -210 -80 -402 -263 -494
-468 -70 -155 -103 -322 -120 -598 -9 -157 -16 -2001 -7 -2009 2 -2 53 4 113
13 78 11 190 16 385 16 281 1 356 -5 569 -45 57 -11 105 -18 108 -16 2 3 -16
31 -40 64 -137 180 -233 399 -274 626 -23 125 -22 370 1 497 95 521 469 951
970 1115 150 49 277 68 446 68 169 0 296 -19 446 -68 505 -165 868 -584 970
-1120 26 -135 24 -368 -4 -513 -75 -377 -295 -713 -604 -919 -213 -142 -394
-209 -655 -242 l-132 -16 117 -90 c151 -115 460 -424 575 -575 48 -63 98 -128
110 -143 l22 -28 214 11 c241 12 402 36 532 80 158 53 241 103 358 214 185
178 277 389 311 716 19 182 32 1006 26 1610 -6 597 -16 866 -37 1002 -76 507
-366 809 -859 892 -52 9 -167 21 -255 26 -209 14 -1748 21 -2073 10z m2562
-479 c64 -28 141 -104 173 -170 23 -48 27 -68 27 -141 -1 -103 -22 -157 -89
-229 -162 -174 -441 -129 -547 87 -61 123 -39 264 58 371 91 102 255 137 378
82z"/>
<path d="M3725 4760 c-318 -42 -588 -240 -725 -533 -60 -128 -83 -237 -83
-387 1 -258 86 -465 266 -649 447 -455 1206 -330 1487 244 70 141 94 247 93
410 -1 106 -5 148 -26 226 -70 267 -242 477 -490 599 -172 85 -340 113 -522
90z"/>
</g>
</svg>
