<svg width="45" height="45" viewBox="0 0 45 45" fill="none" xmlns="http://www.w3.org/2000/svg">
<path d="M29.5312 22.5C27.7242 22.5 25.9769 21.6932 24.6094 20.2289C23.2796 18.8007 22.4675 16.8961 22.3242 14.8676C22.1713 12.7037 22.8313 10.7139 24.1822 9.26367C25.5331 7.81348 27.4219 7.03125 29.5312 7.03125C31.6257 7.03125 33.5197 7.82754 34.8662 9.27422C36.2259 10.735 36.8877 12.7213 36.7348 14.8667C36.588 16.8979 35.7768 18.8016 34.4496 20.228C33.0855 21.6932 31.3392 22.5 29.5312 22.5ZM41.1179 37.9688H17.9455C17.5729 37.9707 17.2049 37.8872 16.8697 37.7247C16.5345 37.5621 16.241 37.3248 16.0119 37.031C15.7689 36.7125 15.6011 36.3431 15.521 35.9506C15.441 35.558 15.4507 35.1525 15.5496 34.7643C16.2896 31.7927 18.123 29.3282 20.8512 27.6381C23.2726 26.1387 26.3549 25.3125 29.5312 25.3125C32.77 25.3125 35.7715 26.1035 38.2069 27.602C40.9412 29.2834 42.7772 31.7619 43.5138 34.7695C43.6114 35.158 43.6201 35.5636 43.5392 35.9559C43.4582 36.3483 43.2897 36.7172 43.0462 37.0354C42.8173 37.3278 42.5245 37.5639 42.1903 37.7257C41.8561 37.8875 41.4892 37.9707 41.1179 37.9688ZM12.9199 22.8516C9.82704 22.8516 7.10771 19.9758 6.85546 16.4417C6.73066 14.6312 7.29491 12.9568 8.43749 11.729C9.56777 10.5135 11.1621 9.84375 12.9199 9.84375C14.6777 9.84375 16.2598 10.517 17.3962 11.7396C18.5476 12.9771 19.1101 14.6479 18.9782 16.4435C18.726 19.9767 16.0075 22.8516 12.9199 22.8516ZM18.6908 25.6157C17.1448 24.8599 15.1383 24.4819 12.9208 24.4819C10.3315 24.4819 7.81698 25.1569 5.83945 26.3821C3.59736 27.7734 2.08915 29.7993 1.48007 32.2453C1.39094 32.5971 1.38251 32.9646 1.45541 33.3201C1.52831 33.6756 1.68066 34.0101 1.90107 34.2984C2.1102 34.5669 2.37812 34.7838 2.68423 34.9326C2.99034 35.0813 3.32647 35.1578 3.66679 35.1562H13.4226C13.5873 35.1562 13.7467 35.0984 13.8731 34.9929C13.9996 34.8874 14.0849 34.7408 14.1143 34.5788C14.124 34.5234 14.1363 34.4681 14.1504 34.4136C14.8957 31.42 16.6421 28.8905 19.2226 27.0466C19.3175 26.9782 19.3938 26.8872 19.4446 26.7818C19.4955 26.6764 19.5192 26.56 19.5137 26.4431C19.5082 26.3263 19.4737 26.2126 19.4132 26.1125C19.3526 26.0124 19.2681 25.9289 19.1672 25.8697C19.0292 25.7889 18.871 25.7036 18.6908 25.6157Z" fill="black"/>
</svg>
